# xmcd
#
# Track frame offsets:
# 150
# 26811
# 55725
# 78969
# 110718
# 136798
# 166846
# 198594
# 227507
# 257556
# 284769
# 318219
#
# Disc length: 4673 seconds
#
#
# Revision: 3
# Processed by: cddbd v1.5.1PL0 Copyright (c) Steve Scherf et al.
# Submitted via: FreeRIP 2.942 
#
DISCID=a0123f0c
DTITLE=Various Artist - DJ Pippi and Jamie Lewis
DYEAR=2005
DGENRE=House
TTITLE0=Chuck Love - Back In My Life
TTITLE1=Holmes Ives ft. Avalon Frost - 8 Letters
TTITLE2=Chuck Love - El Divorcee
TTITLE3=Overstreet ft. Alice Russell - loose Your Self
TTITLE4=Faze Action ft. Zeke Manyika - Kariba 2005
TTITLE5=Bob Sinclar ft.Ron Carroll - World Of Love
TTITLE6=Hardsoul and New Cool Collective - Bounson (DJ Pippi and I.K.L vs.Solarside remix)
TTITLE7=Stereo Mutants - Morning Light
TTITLE8=Penn And Jabato - Tropicana
TTITLE9=Solar Sides - Phuture Afro
TTITLE10=Torre - Corps A Corps
TTITLE11=Ware - Dub Side Influence
EXTD=
EXTT0=
EXTT1=
EXTT2=
EXTT3=
EXTT4=
EXTT5=
EXTT6=
EXTT7=
EXTT8=
EXTT9=
EXTT10=
EXTT11=
PLAYORDER=
